# xmcd CD database file
#
# Track frame offsets:
#	150
#	16073
#	32929
#	51833
#	67983
#	80411
#	99065
#	116423
#	132137
#	150235
#	166816
#	182584
#
# Disc length: 2660 seconds
#
# Revision: 0
# Processed by: cddbd v1.5.2PL0 Copyright (c) Steve Scherf et al.
# Submitted via: CDex 1.50
#
DISCID=800a620c
DTITLE=Huckaby Junction - Mercy Me
DYEAR=2006
DGENRE=Country
TTITLE0=Too Many Roads In Texas
TTITLE1=Growing Up In This Town
TTITLE2=Grant Street
TTITLE3=Longshots
TTITLE4=I Must Have Been Crazy
TTITLE5=Old Time
TTITLE6=Be There To Love You
TTITLE7=Head For The Hills
TTITLE8=How Do We Do It
TTITLE9=End Of The Line
TTITLE10=Mercy Me
TTITLE11=Rain Gonna Come
EXTD=YEAR: 2006
EXTT0=
EXTT1=
EXTT2=
EXTT3=
EXTT4=
EXTT5=
EXTT6=
EXTT7=
EXTT8=
EXTT9=
EXTT10=
EXTT11=
PLAYORDER=
